<svg width="26" height="26.96" viewBox="0 0 26 26.96" fill="none" xmlns="http://www.w3.org/2000/svg">
<path d="M17.9139 1.0741C-4.40032 7.88611 1.76546 20.5877 7.63762 26.087C25.6456 37.1565 26.8853 14.024 25.2541 1.0741H17.9139Z" fill="white" stroke="#FFFBFB"/>
<path d="M3.99499 25.8705C2.73492 24.543 1.75407 23.0091 1.05244 21.2687C0.350815 19.5282 0 17.7436 0 15.9146C0 13.7612 0.365134 11.7922 1.0954 10.0075C1.82567 8.2228 2.92107 6.57824 4.3816 5.0738C5.38393 4.04134 6.62968 3.17113 8.11885 2.46315C9.60803 1.75518 11.3621 1.20208 13.3811 0.803844C15.4001 0.405609 17.6839 0.154869 20.2327 0.0516229C22.7815 -0.051623 25.6166 1.18683e-07 28.7382 0.206492C28.9673 3.39237 29.046 6.30538 28.9744 8.94553C28.9028 11.5857 28.6737 13.953 28.2871 16.0474C27.9005 18.1418 27.3564 19.9781 26.6548 21.5563C25.9531 23.1345 25.0868 24.4545 24.0559 25.5165C22.5953 27.0209 21.0202 28.1567 19.3306 28.9236C17.641 29.6906 15.8368 30.0741 13.918 30.0741C11.942 30.0741 10.1307 29.7275 8.48399 29.0342C6.83731 28.341 5.34097 27.2864 3.99499 25.8705ZM8.41955 25.8705C9.1355 26.372 9.966 26.7555 10.9111 27.0209C11.8561 27.2864 12.8584 27.4192 13.918 27.4192C15.4358 27.4192 16.9107 27.0947 18.3426 26.4457C19.7745 25.7967 21.0775 24.8528 22.2517 23.6138C23.0249 22.8174 23.6836 21.7775 24.2277 20.4943C24.7718 19.2111 25.2157 17.6919 25.5594 15.9368C25.903 14.1816 26.1321 12.1978 26.2467 9.98536C26.3612 7.77295 26.3612 5.33929 26.2467 2.6844C23.5547 2.6254 21.142 2.66227 19.0084 2.79502C16.8749 2.92776 14.992 3.17113 13.3596 3.52511C11.7272 3.8791 10.324 4.32896 9.14982 4.87468C7.97566 5.42041 7.01629 6.09151 6.27171 6.88798C5.06891 8.15643 4.1525 9.49863 3.52247 10.9146C2.89243 12.3305 2.57741 13.776 2.57741 15.2509C2.57741 16.6668 2.87095 18.1492 3.45803 19.6979C4.04511 21.2465 4.76822 22.4929 5.62735 23.4368C7.14517 20.5459 8.96367 17.95 11.0829 15.6491C13.2021 13.3482 15.4502 11.534 17.8271 10.2066C15.3356 12.419 13.3166 14.8158 11.7702 17.3969C10.2237 19.9781 9.10686 22.8026 8.41955 25.8705Z" fill="#8AB77B"/>
</svg>
