<svg width="20" height="21" viewBox="0 0 20 21" fill="none" xmlns="http://www.w3.org/2000/svg">
<path d="M4.86989 19.8681C4.53381 20.1448 4.18291 20.1547 3.81717 19.8977C3.45144 19.6407 3.33777 19.3046 3.47616 18.8895L5.43331 12.5139L0.392157 8.89615C0.0363109 8.63915 -0.0773622 8.30802 0.0511377 7.90275C0.179638 7.49748 0.461349 7.29484 0.896272 7.29484H7.15323L9.14004 0.652385C9.19935 0.434923 9.31302 0.271827 9.48106 0.163096C9.6491 0.0543654 9.82208 0 10 0C10.1779 0 10.3509 0.0543654 10.5189 0.163096C10.687 0.271827 10.8007 0.434923 10.86 0.652385L12.8468 7.29484H19.1037C19.5387 7.29484 19.8204 7.49748 19.9489 7.90275C20.0774 8.30802 19.9637 8.63915 19.6078 8.89615L14.5667 12.5139L16.5238 18.8895C16.6622 19.3046 16.5486 19.6407 16.1828 19.8977C15.8171 20.1547 15.4662 20.1448 15.1301 19.8681L10 15.9538L4.86989 19.8681Z" fill="#E5C369"/>
</svg>
